<svg xmlns="http://www.w3.org/2000/svg" viewBox="0 0 48 48" width="48" height="48">
  <rect width="48" height="48" rx="10" ry="10" fill="#FFFFFF" stroke="#E0E0E0" stroke-width="0.5"/>
  <rect x="16" y="28" width="16" height="9" rx="2" fill="#EEF2FA" stroke="#FF6D00" stroke-width="1.2"/>
  <circle cx="20" cy="32" r="1.2" fill="#FF6D00"/>
  <circle cx="24" cy="32" r="1.2" fill="#2A8040"/>
  <line x1="28" y1="31" x2="30" y2="31" stroke="#5C6BC0" stroke-width="1" stroke-linecap="round"/>
  <line x1="28" y1="33" x2="30" y2="33" stroke="#5C6BC0" stroke-width="1" stroke-linecap="round"/>
  <path d="M20,26 Q24,20 28,26" stroke="#FF6D00" stroke-width="1.5" fill="none" stroke-linecap="round" opacity="0.9"/>
  <path d="M17,23 Q24,13 31,23" stroke="#FF6D00" stroke-width="1.5" fill="none" stroke-linecap="round" opacity="0.65"/>
  <path d="M13,20 Q24,6 35,20" stroke="#FF6D00" stroke-width="1.5" fill="none" stroke-linecap="round" opacity="0.35"/>
  <circle cx="40" cy="14" r="2" fill="#5C6BC0"/>
  <circle cx="42" cy="22" r="2" fill="#5C6BC0"/>
  <circle cx="40" cy="30" r="2" fill="#5C6BC0"/>
  <line x1="35" y1="17" x2="39" y2="14" stroke="#5C6BC0" stroke-width="0.8" stroke-dasharray="2,2" opacity="0.7"/>
  <line x1="36" y1="23" x2="40" y2="22" stroke="#5C6BC0" stroke-width="0.8" stroke-dasharray="2,2" opacity="0.7"/>
  <line x1="35" y1="29" x2="38" y2="29" stroke="#5C6BC0" stroke-width="0.8" stroke-dasharray="2,2" opacity="0.7"/>
  <circle cx="24" cy="5" r="2" fill="#FF6D00"/>
  <text x="24" y="46" font-size="4.5" font-family="sans-serif" fill="#5A6082" text-anchor="middle">SSE TRIGGER</text>
</svg>
